<?xml version="1.0" standalone="no"?>
<!DOCTYPE svg PUBLIC "-//W3C//DTD SVG 20010904//EN"
 "http://www.w3.org/TR/2001/REC-SVG-20010904/DTD/svg10.dtd">
<svg version="1.0" xmlns="http://www.w3.org/2000/svg"
 width="559.000000pt" height="200.000000pt" viewBox="0 0 559.000000 200.000000"
 preserveAspectRatio="xMidYMid meet">

<g transform="translate(0.000000,200.000000) scale(0.100000,-0.100000)"
fill="#000000" stroke="none">
<path d="M730 1512 c0 -140 1 -149 25 -184 40 -60 91 -77 221 -75 100 2 114 5
148 27 110 75 96 250 -25 300 -24 10 -29 18 -29 46 l0 34 -170 0 -170 0 0
-148z m50 103 l0 -35 50 0 50 0 0 35 c0 28 4 35 20 35 18 0 20 -7 20 -56 0
-31 3 -54 8 -52 4 2 24 12 45 21 32 15 37 22 37 52 0 28 4 35 20 35 16 0 20
-7 20 -32 0 -29 6 -36 47 -58 59 -31 85 -74 85 -140 0 -39 -6 -58 -27 -86 -39
-51 -73 -61 -197 -62 -94 0 -112 3 -139 21 -67 46 -74 64 -77 218 -3 135 -3
139 17 139 17 0 21 -6 21 -35z"/>
<path d="M787 1533 c-12 -12 -7 -113 7 -146 18 -44 46 -67 90 -74 l37 -6 -20
34 c-17 27 -21 51 -21 117 l0 82 -43 0 c-24 0 -47 -3 -50 -7z"/>
<path d="M968 1513 c-50 -31 -64 -107 -28 -153 l19 -25 21 21 c17 16 23 38 27
97 3 43 2 77 -3 77 -5 0 -21 -8 -36 -17z"/>
<path d="M1050 1457 c0 -52 -5 -84 -19 -110 -15 -30 -16 -37 -5 -37 33 0 84
30 98 59 26 50 21 88 -18 127 -19 19 -39 34 -45 34 -7 0 -11 -27 -11 -73z"/>
<path d="M2541 1544 c-13 -52 -20 -98 -17 -101 9 -10 12 -4 34 89 24 96 26
108 14 108 -4 0 -18 -43 -31 -96z"/>
<path d="M2816 1562 c-9 -43 -19 -88 -23 -100 -3 -12 -1 -22 5 -22 5 0 19 42
31 93 24 104 24 107 12 107 -4 0 -16 -35 -25 -78z"/>
<path d="M2307 1593 c-4 -3 -7 -13 -7 -21 0 -12 3 -12 19 2 21 19 41 14 41
-10 0 -9 -13 -29 -30 -46 -16 -16 -30 -34 -30 -39 0 -5 18 -9 40 -9 22 0 40 5
40 10 0 6 -12 10 -26 10 l-26 0 26 31 c29 34 32 49 14 67 -13 13 -50 16 -61 5z"/>
<path d="M2410 1565 c0 -33 1 -34 30 -28 27 5 30 3 30 -21 0 -29 -26 -36 -49
-13 -10 10 -12 8 -9 -8 4 -23 42 -32 64 -15 33 28 5 88 -36 77 -13 -3 -20 0
-20 9 0 9 11 14 30 14 17 0 30 5 30 10 0 6 -16 10 -35 10 -33 0 -35 -2 -35
-35z"/>
<path d="M2616 1584 c-10 -27 -7 -89 6 -102 46 -46 101 36 68 99 -13 24 -65
26 -74 3z m59 -49 c0 -33 -3 -40 -20 -40 -16 0 -21 8 -23 43 -3 40 -2 43 20
40 20 -3 23 -9 23 -43z"/>
<path d="M2720 1590 c0 -5 5 -10 10 -10 6 0 10 -25 10 -55 0 -30 5 -55 10 -55
6 0 10 28 10 65 0 58 -2 65 -20 65 -11 0 -20 -4 -20 -10z"/>
<path d="M2884 1585 c-10 -24 4 -31 20 -10 7 10 18 15 24 11 21 -12 13 -41
-18 -71 -16 -16 -30 -32 -30 -37 0 -4 18 -8 40 -8 22 0 40 5 40 10 0 6 -11 10
-25 10 l-24 0 25 27 c36 39 30 77 -14 81 -22 2 -34 -2 -38 -13z"/>
<path d="M2989 1576 c-7 -14 -9 -40 -5 -60 5 -27 13 -37 32 -42 45 -12 70 40
50 104 -11 32 -62 31 -77 -2z m63 -18 c7 -45 -3 -69 -26 -66 -21 3 -34 44 -22
74 9 23 44 17 48 -8z"/>
<path d="M3107 1593 c-4 -3 -7 -13 -7 -21 0 -12 3 -12 19 2 21 19 41 14 41
-10 0 -9 -13 -29 -30 -46 -16 -16 -30 -34 -30 -39 0 -5 18 -9 40 -9 22 0 40 5
40 10 0 6 -12 10 -26 10 l-26 0 26 31 c29 34 32 49 14 67 -13 13 -50 16 -61 5z"/>
<path d="M3210 1565 c0 -33 2 -35 26 -29 17 4 29 2 34 -6 19 -31 -21 -55 -48
-28 -9 9 -12 8 -12 -5 0 -10 11 -19 27 -23 20 -6 31 -2 45 16 16 20 17 25 5
44 -8 12 -24 22 -36 24 -29 5 -27 22 3 22 14 0 28 5 31 10 4 6 -10 10 -34 10
-40 0 -41 -1 -41 -35z"/>
<path d="M4482 1549 c-70 -35 -105 -71 -141 -149 -38 -82 -35 -167 7 -253 55
-111 148 -169 274 -169 61 0 81 5 137 34 221 112 222 422 2 535 -55 29 -72 33
-140 33 -67 0 -87 -4 -139 -31z m118 -4 c0 -21 -5 -25 -28 -25 -15 0 -34 -6
-40 -12 -10 -10 -15 -10 -22 2 -8 12 -11 11 -16 -7 -8 -28 -16 -29 -31 -4 -13
22 -8 31 19 31 10 0 18 5 18 10 0 14 27 12 33 -2 3 -8 6 -6 6 5 1 21 21 23 21
2 0 -8 5 -15 10 -15 6 0 10 9 10 20 0 11 5 20 10 20 6 0 10 -11 10 -25z m80 3
c0 -20 1 -21 20 -3 20 18 20 17 20 -10 0 -23 -3 -26 -22 -21 -13 3 -31 6 -40
6 -12 0 -18 8 -18 25 0 18 5 25 20 25 14 0 20 -7 20 -22z m82 -33 c-3 -16 -1
-17 11 -7 11 10 17 9 27 -3 9 -10 9 -15 1 -15 -6 0 -11 -7 -11 -15 0 -11 -7
-10 -35 6 -30 18 -33 24 -24 41 13 23 35 18 31 -7z m-54 -21 c85 -35 142 -120
142 -214 0 -203 -242 -306 -389 -167 -150 142 -50 394 157 396 29 1 69 -6 90
-15z m-256 -5 c20 -11 20 -11 -7 -39 -23 -24 -32 -27 -47 -19 -15 8 -17 13 -8
24 9 11 17 12 31 4 20 -10 28 4 9 16 -11 7 -14 25 -4 25 3 0 14 -5 26 -11z
m401 -34 c10 -14 14 -25 8 -25 -5 0 -18 -3 -28 -7 -16 -6 -16 -5 -4 10 8 10
11 21 7 24 -4 4 -11 1 -15 -6 -5 -7 -14 -10 -20 -6 -9 5 -9 10 0 21 17 20 31
17 52 -11z m-493 -206 c0 -10 -4 -19 -10 -19 -5 0 -10 12 -10 26 0 14 4 23 10
19 6 -3 10 -15 10 -26z m540 6 c0 -14 -4 -25 -10 -25 -11 0 -14 33 -3 43 11
11 13 8 13 -18z m-520 -50 c0 -18 -5 -25 -20 -25 -11 0 -20 2 -20 4 0 2 -3 12
-7 22 -5 13 -3 16 10 11 9 -3 17 -2 17 3 0 6 5 10 10 10 6 0 10 -11 10 -25z
m500 15 c0 -5 7 -7 15 -4 17 7 18 3 9 -20 -10 -27 -44 -20 -44 9 0 14 5 25 10
25 6 0 10 -4 10 -10z m-477 -91 c-12 -12 -40 -2 -47 18 -4 10 -2 13 8 10 8 -3
17 2 21 11 6 15 9 14 18 -6 7 -15 7 -26 0 -33z m470 28 c4 3 7 -1 7 -9 0 -19
-30 -32 -43 -19 -5 5 -6 19 -2 32 7 21 9 21 20 6 6 -9 15 -14 18 -10z m-433
-46 c5 -11 19 -23 31 -26 28 -9 23 -52 -6 -47 -27 5 -32 11 -16 21 7 5 10 14
6 20 -5 8 -11 9 -19 2 -9 -8 -18 -6 -32 4 -11 8 -14 15 -6 15 6 0 12 7 12 15
0 21 17 19 30 -4z m398 -1 c10 -17 10 -21 -2 -26 -8 -3 -22 -4 -31 -2 -10 2
-20 -3 -22 -9 -3 -7 0 -13 7 -13 6 0 8 -4 5 -10 -3 -5 -15 -10 -26 -10 -26 0
-25 37 1 45 11 3 25 15 30 26 14 24 22 24 38 -1z m-301 -61 c6 -6 9 -18 6 -25
-6 -16 -39 -19 -48 -4 -3 6 -1 10 5 10 7 0 10 7 6 15 -6 18 15 20 31 4z m197
-4 c-4 -8 -1 -15 6 -15 6 0 8 -4 5 -10 -8 -13 -42 -13 -50 0 -4 6 -1 17 5 25
16 20 41 19 34 0z"/>
<path d="M4552 1487 c-53 -17 -118 -81 -136 -134 -20 -58 -20 -87 0 -146 15
-45 90 -127 115 -127 7 0 -3 10 -21 23 -44 29 -69 65 -81 113 -15 66 9 184 39
184 7 0 17 10 23 23 13 29 56 50 63 31 3 -8 -6 -20 -24 -29 -40 -21 -71 -69
-76 -118 -3 -35 -3 -38 5 -15 14 43 50 87 84 104 18 9 42 26 54 37 25 22 44
17 24 -7 -9 -11 -3 -23 36 -59 26 -25 66 -60 88 -77 50 -40 56 -50 44 -72 -18
-34 -46 -41 -94 -22 -24 9 -55 14 -67 11 -15 -4 -36 1 -55 13 -24 14 -31 16
-26 5 3 -8 9 -15 14 -15 15 0 11 -130 -3 -131 -7 0 -4 -4 7 -9 61 -26 157 3
214 65 81 88 81 202 0 290 -60 66 -145 89 -227 62z m71 -24 c-18 -9 -36 -13
-40 -9 -11 10 18 26 47 25 24 0 23 -1 -7 -16z m137 -43 c24 -25 50 -63 50 -75
0 -3 -8 -1 -18 4 -30 16 -105 41 -124 41 -23 0 -22 8 2 48 18 29 22 31 42 20
12 -7 34 -24 48 -38z m10 -94 c37 -18 46 -28 48 -54 l3 -31 -32 27 c-81 68
-94 81 -79 81 8 0 35 -10 60 -23z m-66 -152 c11 -8 30 -11 44 -7 19 4 23 2 20
-12 -1 -10 -15 -27 -30 -38 l-26 -20 -36 22 c-35 22 -53 52 -41 71 7 12 40 4
69 -16z"/>
<path d="M4630 1342 c0 -12 19 -26 26 -19 2 2 -2 10 -11 17 -9 8 -15 8 -15 2z"/>
<path d="M4740 1250 c0 -5 7 -10 16 -10 8 0 12 5 9 10 -3 6 -10 10 -16 10 -5
0 -9 -4 -9 -10z"/>
<path d="M2319 1293 c-21 -24 -18 -118 4 -140 16 -17 16 -15 0 26 -16 40 -16
47 -1 87 17 49 17 52 -3 27z"/>
<path d="M3265 1283 c8 -18 15 -44 15 -58 0 -14 -7 -40 -15 -58 l-16 -32 21
24 c13 15 20 37 20 66 0 29 -7 51 -20 66 l-21 24 16 -32z"/>
<path d="M2368 1238 c5 -71 10 -77 11 -15 0 31 -2 57 -7 57 -4 0 -6 -19 -4
-42z"/>
<path d="M2428 1273 c17 -2 32 -6 32 -8 0 -2 -9 -24 -20 -49 -24 -58 -16 -61
10 -3 28 60 26 67 -17 65 -37 -1 -37 -1 -5 -5z"/>
<path d="M2612 1264 c-24 -17 -30 -62 -10 -82 17 -17 54 -15 72 4 25 25 20 44
-11 43 -18 -1 -22 -3 -10 -6 24 -6 17 -37 -9 -41 -28 -4 -48 22 -40 53 7 27
42 35 64 13 9 -9 12 -9 12 0 0 9 -30 32 -42 32 -2 0 -14 -7 -26 -16z"/>
<path d="M2491 1253 c-1 -29 17 -39 37 -19 12 12 13 19 5 27 -8 8 -11 6 -10
-6 3 -27 -21 -29 -26 -3 -4 22 -4 22 -6 1z"/>
<path d="M3098 1258 c-2 -7 -2 -29 2 -48 3 -25 11 -36 25 -38 18 -2 18 -2 3 8
-10 6 -18 22 -18 35 0 17 6 25 18 26 13 0 14 2 2 6 -8 3 -18 10 -21 15 -3 5
-8 4 -11 -4z"/>
<path d="M2713 1210 c0 -25 2 -35 4 -22 2 12 2 32 0 45 -2 12 -4 2 -4 -23z"/>
<path d="M2752 1238 c-30 -30 -1 -75 43 -64 22 6 26 11 23 39 -2 26 -8 33 -28
35 -14 2 -31 -3 -38 -10z m53 -28 c0 -16 -6 -26 -18 -28 -19 -4 -32 20 -23 44
9 25 41 13 41 -16z"/>
<path d="M2840 1210 c0 -22 5 -40 10 -40 6 0 10 15 10 34 0 19 6 37 13 39 6 3
2 6 -10 6 -20 1 -23 -4 -23 -39z"/>
<path d="M2901 1208 l2 -43 6 35 c4 26 11 35 26 35 15 0 22 -9 27 -35 l6 -35
-1 40 c-2 37 -4 40 -34 43 -33 3 -33 3 -32 -40z"/>
<path d="M2994 1225 c-8 -33 11 -56 47 -53 26 2 29 6 29 38 0 34 -2 36 -35 38
-29 2 -35 -1 -41 -23z m64 -13 c4 -28 -24 -41 -44 -20 -20 20 -7 50 20 46 13
-2 22 -12 24 -26z"/>
<path d="M3154 1236 c-3 -8 -4 -25 -2 -38 2 -19 9 -23 41 -23 36 -1 37 0 37
35 0 34 -2 36 -35 38 -24 2 -37 -2 -41 -12z m59 -10 c8 -21 -17 -50 -37 -43
-16 6 -22 38 -9 50 11 12 41 7 46 -7z"/>
<path d="M787 1193 c94 -2 252 -2 350 0 98 1 21 2 -172 2 -192 1 -273 -1 -178
-2z"/>
<path d="M890 1030 c0 -5 5 -10 11 -10 5 0 7 5 4 10 -3 6 -8 10 -11 10 -2 0
-4 -4 -4 -10z"/>
<path d="M931 994 c-1 -45 2 -52 21 -57 28 -8 50 10 46 37 -2 14 -12 22 -30
24 -18 2 -28 10 -31 25 -2 12 -5 -1 -6 -29z m54 -14 c4 -6 1 -18 -6 -26 -11
-13 -14 -13 -27 0 -8 8 -11 19 -8 25 9 14 33 14 41 1z"/>
<path d="M1107 1033 c-11 -10 -8 -93 3 -93 6 0 10 23 10 50 0 51 -1 55 -13 43z"/>
<path d="M1140 991 c0 -28 5 -51 10 -51 6 0 10 20 10 44 0 25 -4 48 -10 51 -6
4 -10 -13 -10 -44z"/>
<path d="M789 1015 c-3 -11 -2 -33 2 -50 4 -20 7 -23 8 -9 0 11 6 25 13 32 8
8 9 12 1 12 -6 0 -13 8 -15 18 -3 15 -4 14 -9 -3z"/>
<path d="M1271 1018 c-1 -10 -7 -18 -13 -18 -10 0 -10 -2 -2 -8 7 -4 14 -18
17 -32 4 -25 4 -25 6 3 0 15 7 27 14 27 8 0 9 3 1 8 -6 4 -14 14 -17 22 -4 12
-6 11 -6 -2z"/>
<path d="M610 971 c0 -17 5 -31 10 -31 6 0 10 11 10 25 0 16 6 25 15 25 9 0
15 -9 15 -25 0 -14 5 -25 11 -25 6 0 9 12 7 28 -2 22 -8 28 -35 30 -31 3 -33
1 -33 -27z"/>
<path d="M701 973 c-1 -37 7 -44 37 -36 17 4 22 12 21 37 -1 22 -3 25 -6 9 -2
-12 -11 -27 -18 -33 -16 -13 -18 -9 -28 35 -3 12 -5 8 -6 -12z"/>
<path d="M841 965 c1 -20 3 -24 6 -10 3 11 12 25 20 32 13 10 12 12 -6 10 -17
-1 -21 -7 -20 -32z"/>
<path d="M890 970 c0 -16 5 -30 10 -30 6 0 10 14 10 30 0 17 -4 30 -10 30 -5
0 -10 -13 -10 -30z"/>
<path d="M1021 973 c-1 -37 7 -44 37 -36 16 4 22 13 22 34 0 37 -18 38 -22 2
-4 -37 -21 -36 -29 2 l-7 30 -1 -32z"/>
<path d="M1180 981 c-7 -15 -6 -23 6 -35 18 -19 24 -19 44 -6 12 8 10 10 -9 8
-18 -2 -24 3 -27 20 -4 24 21 32 29 10 2 -7 8 -10 12 -6 11 11 -4 28 -25 28
-11 0 -24 -9 -30 -19z"/>
<path d="M2492 958 c-14 -14 -16 -48 -2 -48 6 0 10 9 10 21 0 17 5 20 33 17
51 -5 48 -37 -8 -82 -31 -26 -45 -45 -45 -62 0 -22 3 -24 55 -24 30 0 55 5 55
10 0 6 -20 10 -45 10 -57 0 -58 15 -4 55 66 48 65 107 -2 113 -19 2 -40 -3
-47 -10z"/>
<path d="M2640 960 c-11 -7 -15 -29 -15 -85 0 -56 4 -78 15 -85 21 -14 74 -12
88 2 16 16 16 150 0 166 -14 14 -67 16 -88 2z m75 -85 l0 -70 -32 -3 -33 -3 0
76 0 76 33 -3 32 -3 0 -70z"/>
<path d="M2852 958 c-16 -16 -16 -150 0 -166 14 -14 67 -16 88 -2 11 7 15 29
15 85 0 56 -4 78 -15 85 -21 14 -74 12 -88 -2z m78 -84 l0 -75 -32 3 c-33 3
-33 3 -36 62 -4 75 1 86 38 86 l30 0 0 -76z"/>
<path d="M3010 960 c-11 -7 -15 -29 -15 -85 0 -56 4 -78 15 -85 21 -14 74 -12
88 2 16 16 16 150 0 166 -14 14 -67 16 -88 2z m75 -85 l0 -70 -32 -3 -33 -3 0
76 0 76 33 -3 32 -3 0 -70z"/>
<path d="M2780 910 c0 -11 5 -20 10 -20 6 0 10 9 10 20 0 11 -4 20 -10 20 -5
0 -10 -9 -10 -20z"/>
<path d="M2780 800 c0 -11 5 -20 10 -20 6 0 10 9 10 20 0 11 -4 20 -10 20 -5
0 -10 -9 -10 -20z"/>
<path d="M640 740 c0 -5 5 -10 11 -10 5 0 7 5 4 10 -3 6 -8 10 -11 10 -2 0 -4
-4 -4 -10z"/>
<path d="M1415 740 c-3 -5 -1 -10 4 -10 6 0 11 5 11 10 0 6 -2 10 -4 10 -3 0
-8 -4 -11 -10z"/>
<path d="M4570 740 c0 -5 5 -10 11 -10 5 0 7 5 4 10 -3 6 -8 10 -11 10 -2 0
-4 -4 -4 -10z"/>
<path d="M340 691 c0 -57 19 -71 22 -16 0 19 1 40 2 47 1 6 -5 13 -11 16 -9 2
-13 -11 -13 -47z"/>
<path d="M410 703 l0 -38 -20 25 c-11 14 -20 21 -20 15 0 -5 11 -23 25 -40
l24 -30 1 53 c0 28 -2 52 -5 52 -3 0 -5 -17 -5 -37z"/>
<path d="M537 727 c-9 -26 5 -87 21 -87 12 0 13 3 4 12 -16 16 -15 45 0 50 9
3 8 9 -4 21 -12 12 -17 13 -21 4z"/>
<path d="M680 689 l0 -50 31 3 c39 4 59 30 43 56 -7 9 -21 17 -33 16 -11 0
-21 5 -21 13 0 7 -4 13 -10 13 -5 0 -10 -23 -10 -51z m58 -11 c-2 -13 -10 -23
-18 -23 -8 0 -16 10 -18 23 -3 17 2 22 18 22 16 0 21 -5 18 -22z"/>
<path d="M860 690 c0 -27 5 -50 10 -50 6 0 10 23 10 50 0 28 -4 50 -10 50 -5
0 -10 -22 -10 -50z"/>
<path d="M900 690 c0 -27 5 -50 10 -50 6 0 10 23 10 50 0 28 -4 50 -10 50 -5
0 -10 -22 -10 -50z"/>
<path d="M1027 727 c-9 -26 5 -87 21 -87 12 0 13 3 4 12 -16 16 -15 45 0 50 9
3 8 9 -4 21 -12 12 -17 13 -21 4z"/>
<path d="M1110 730 c0 -5 7 -10 15 -10 11 0 15 -12 17 -42 l1 -43 4 39 c3 22
12 46 21 53 15 11 12 12 -20 13 -21 0 -38 -4 -38 -10z"/>
<path d="M4150 690 c0 -55 17 -69 22 -17 l3 32 20 -32 c10 -18 23 -33 27 -33
4 0 7 24 7 53 -2 51 -2 51 -8 12 l-6 -40 -25 37 c-14 21 -28 38 -32 38 -5 0
-8 -22 -8 -50z"/>
<path d="M4530 690 c0 -27 5 -50 10 -50 6 0 10 23 10 50 0 28 -4 50 -10 50 -5
0 -10 -22 -10 -50z"/>
<path d="M4640 689 l0 -50 33 3 c29 3 32 6 33 38 1 43 -11 60 -42 60 -22 0
-24 -4 -24 -51z m50 21 c0 -5 -7 -10 -15 -10 -8 0 -15 5 -15 10 0 6 7 10 15
10 8 0 15 -4 15 -10z m3 -45 c1 -5 -6 -11 -15 -13 -11 -2 -18 3 -18 13 0 17
30 18 33 0z"/>
<path d="M4900 690 c0 -27 5 -50 10 -50 6 0 10 5 10 12 0 9 3 9 12 0 23 -23
29 -12 9 14 -12 15 -21 37 -21 50 0 13 -4 24 -10 24 -5 0 -10 -22 -10 -50z"/>
<path d="M5067 727 c-9 -26 5 -87 21 -87 12 0 13 3 4 12 -16 16 -15 45 0 50 9
3 8 9 -4 21 -12 12 -17 13 -21 4z"/>
<path d="M453 685 c2 -37 4 -40 35 -43 31 -3 32 -2 32 32 0 45 -18 56 -22 14
-4 -45 -31 -44 -40 2 l-6 35 1 -40z"/>
<path d="M590 678 c0 -21 5 -38 10 -38 6 0 10 14 10 30 0 17 5 30 10 30 6 0
10 4 10 8 0 4 -9 8 -20 8 -16 0 -20 -7 -20 -38z"/>
<path d="M640 680 c0 -22 5 -40 10 -40 6 0 10 18 10 40 0 22 -4 40 -10 40 -5
0 -10 -18 -10 -40z"/>
<path d="M770 692 c0 -34 16 -52 47 -52 21 0 23 4 22 43 l-2 42 -6 -35 c-8
-46 -35 -48 -39 -2 -4 39 -22 43 -22 4z"/>
<path d="M946 704 c-19 -18 -19 -20 -6 -45 12 -21 45 -26 56 -8 4 7 0 9 -14 5
-11 -4 -23 -2 -27 4 -4 6 6 10 24 10 32 0 41 16 19 38 -16 16 -33 15 -52 -4z
m37 -11 c-7 -2 -19 -2 -25 0 -7 3 -2 5 12 5 14 0 19 -2 13 -5z"/>
<path d="M1190 679 c0 -21 5 -39 10 -39 6 0 10 14 10 30 0 17 5 30 10 30 19 0
10 16 -10 17 -17 2 -20 -4 -20 -38z"/>
<path d="M1252 708 c-25 -25 -6 -68 29 -68 10 0 21 5 25 11 4 7 0 9 -14 5 -11
-4 -23 -2 -27 4 -4 6 6 10 24 10 34 0 39 11 15 34 -19 19 -36 20 -52 4z m41
-15 c-7 -2 -19 -2 -25 0 -7 3 -2 5 12 5 14 0 19 -2 13 -5z"/>
<path d="M1335 683 c19 -45 23 -49 34 -37 13 15 31 74 22 74 -5 0 -12 -11 -15
-25 -4 -14 -10 -25 -15 -25 -5 0 -12 11 -15 25 -4 14 -11 25 -16 25 -6 0 -4
-16 5 -37z"/>
<path d="M1410 680 c0 -22 5 -40 10 -40 6 0 10 18 10 40 0 22 -4 40 -10 40 -5
0 -10 -18 -10 -40z"/>
<path d="M1457 714 c-13 -14 -7 -33 13 -39 11 -3 20 -11 20 -16 0 -6 -10 -7
-22 -4 -18 6 -20 4 -12 -5 14 -14 46 -10 51 7 2 6 -8 19 -24 28 -24 14 -25 16
-5 11 15 -3 22 0 19 7 -4 14 -30 21 -40 11z"/>
<path d="M1530 705 c-26 -32 13 -81 48 -59 23 15 26 38 7 58 -20 20 -39 20
-55 1z m48 -27 c-2 -13 -10 -23 -18 -23 -8 0 -16 10 -18 23 -3 17 2 22 18 22
16 0 21 -5 18 -22z"/>
<path d="M4262 711 c-8 -5 -12 -21 -10 -37 3 -26 7 -29 41 -31 38 -1 38 -1 35
35 -2 29 -7 36 -28 39 -14 1 -31 -1 -38 -6z m45 -27 c8 -22 -18 -37 -36 -20
-7 8 -10 19 -7 25 10 16 36 13 43 -5z"/>
<path d="M4351 656 c1 -39 4 -52 8 -36 4 18 13 25 31 25 21 0 26 5 28 33 2 17
0 33 -5 34 -4 0 -20 2 -35 3 -28 2 -28 2 -27 -59z m57 23 c4 -19 -19 -31 -38
-19 -18 11 -4 42 17 38 10 -2 19 -10 21 -19z"/>
<path d="M4450 706 c-6 -8 -10 -25 -8 -38 2 -18 9 -23 33 -23 24 0 31 5 33 23
4 25 -13 52 -33 52 -7 0 -18 -7 -25 -14z m48 -27 c4 -19 -27 -34 -41 -20 -14
14 0 43 20 39 10 -2 19 -10 21 -19z"/>
<path d="M4570 681 c0 -23 5 -41 10 -41 6 0 10 15 10 34 0 19 -4 38 -10 41 -6
4 -10 -10 -10 -34z"/>
<path d="M4735 703 c-18 -17 -18 -19 -5 -44 8 -13 20 -19 40 -17 27 2 30 6 30
38 0 30 -3 35 -25 36 -14 1 -32 -5 -40 -13z m51 -14 c8 -14 -21 -43 -35 -35
-6 4 -11 16 -11 27 0 21 34 27 46 8z"/>
<path d="M4827 714 c-13 -14 -7 -33 13 -39 11 -3 20 -11 20 -16 0 -6 -10 -7
-22 -4 -18 6 -20 4 -12 -5 7 -6 20 -10 30 -8 23 4 32 38 10 38 -8 0 -18 5 -22
12 -5 8 0 9 15 5 14 -3 21 -1 18 6 -4 14 -39 21 -50 11z"/>
<path d="M4935 709 c-11 -17 1 -21 15 -4 8 9 8 15 2 15 -6 0 -14 -5 -17 -11z"/>
<path d="M4982 708 c-25 -25 -6 -68 29 -68 10 0 21 5 25 11 4 7 0 9 -14 5 -11
-4 -23 -2 -27 4 -4 6 6 10 24 10 34 0 39 11 15 34 -19 19 -36 20 -52 4z m41
-15 c-7 -2 -19 -2 -25 0 -7 3 -2 5 12 5 14 0 19 -2 13 -5z"/>
<path d="M2613 565 c0 -33 2 -45 4 -27 2 18 2 45 0 60 -2 15 -4 0 -4 -33z"/>
<path d="M3060 602 c0 -13 -8 -18 -26 -17 -15 0 -32 -8 -38 -17 -17 -28 4 -53
48 -55 l36 -1 0 54 c0 30 -4 54 -10 54 -5 0 -10 -8 -10 -18z m-5 -52 c0 -16
-6 -26 -18 -28 -19 -4 -32 20 -23 44 9 25 41 13 41 -16z"/>
<path d="M2420 561 c0 -28 5 -51 10 -51 6 0 10 8 10 18 0 9 10 22 23 27 12 6
22 19 22 30 0 15 -8 21 -32 23 l-33 3 0 -50z m60 25 c0 -8 -7 -17 -16 -20 -23
-9 -24 -8 -24 14 0 13 7 20 20 20 11 0 20 -6 20 -14z"/>
<path d="M2759 563 c10 -26 22 -48 27 -50 10 -3 46 88 39 96 -3 2 -13 -16 -23
-40 l-19 -44 -13 43 c-7 23 -17 42 -21 42 -5 0 0 -21 10 -47z"/>
<path d="M2512 578 c-31 -31 -5 -67 46 -66 30 1 32 3 32 38 0 35 -2 37 -33 38
-19 1 -39 -4 -45 -10z m53 -28 c0 -29 -32 -41 -41 -16 -9 24 4 48 23 44 12 -2
18 -12 18 -28z"/>
<path d="M2652 578 c-31 -31 -5 -67 46 -66 30 1 32 3 32 38 0 35 -2 37 -33 38
-19 1 -39 -4 -45 -10z m53 -28 c0 -16 -6 -26 -18 -28 -19 -4 -32 20 -23 44 9
25 41 13 41 -16z"/>
<path d="M2854 576 c-3 -8 -4 -25 -2 -38 2 -18 9 -23 32 -23 17 0 31 6 34 15
5 13 3 13 -11 1 -18 -14 -47 -9 -47 9 0 5 16 10 35 10 33 0 35 2 25 20 -12 23
-58 27 -66 6z m51 -6 c4 -6 -5 -10 -20 -10 -15 0 -24 4 -20 10 3 6 12 10 20
10 8 0 17 -4 20 -10z"/>
<path d="M2940 550 c0 -22 5 -40 10 -40 6 0 10 15 10 34 0 19 6 37 13 39 6 3
2 6 -10 6 -20 1 -23 -4 -23 -39z"/>
<path d="M3104 576 c-3 -8 -4 -25 -2 -38 2 -18 9 -23 32 -23 17 0 31 6 34 15
5 13 3 13 -11 1 -18 -14 -47 -9 -47 9 0 5 16 10 35 10 33 0 35 2 25 20 -12 23
-58 27 -66 6z m51 -6 c4 -6 -5 -10 -20 -10 -15 0 -24 4 -20 10 3 6 12 10 20
10 8 0 17 -4 20 -10z"/>
<path d="M740 499 l0 -50 33 3 c29 3 32 6 33 38 1 43 -11 60 -42 60 -22 0 -24
-4 -24 -51z m50 21 c0 -5 -7 -10 -15 -10 -8 0 -15 5 -15 10 0 6 7 10 15 10 8
0 15 -4 15 -10z m3 -45 c1 -5 -6 -11 -15 -13 -11 -2 -18 3 -18 13 0 17 30 18
33 0z"/>
<path d="M1000 500 c0 -27 5 -50 10 -50 6 0 10 5 10 11 0 8 5 7 15 -1 9 -7 18
-11 20 -8 3 3 -1 11 -9 17 -14 11 -13 16 1 37 18 27 7 33 -13 7 -12 -16 -13
-15 -14 10 0 15 -4 27 -10 27 -5 0 -10 -22 -10 -50z"/>
<path d="M1167 537 c-9 -26 5 -87 21 -87 12 0 13 3 4 12 -16 16 -15 45 0 50 9
3 8 9 -4 21 -12 12 -17 13 -21 4z"/>
<path d="M842 521 c-8 -5 -12 -21 -10 -37 3 -26 7 -29 41 -31 38 -1 38 -1 35
35 -2 29 -7 36 -28 39 -14 1 -31 -1 -38 -6z m45 -27 c8 -22 -18 -37 -36 -20
-7 8 -10 19 -7 25 10 16 36 13 43 -5z"/>
<path d="M933 519 c-15 -15 1 -39 24 -39 8 0 11 -5 8 -10 -4 -6 -16 -8 -28 -4
-17 5 -19 3 -11 -6 7 -6 20 -10 30 -8 23 4 32 38 10 38 -8 0 -18 5 -22 12 -5
8 0 9 15 5 14 -3 21 -1 18 6 -5 17 -30 20 -44 6z"/>
<path d="M1086 514 c-19 -18 -19 -20 -6 -45 12 -21 45 -26 56 -8 4 7 0 9 -14
5 -11 -4 -23 -2 -27 4 -4 6 6 10 24 10 32 0 41 16 19 38 -16 16 -33 15 -52 -4z
m37 -11 c-7 -2 -19 -2 -25 0 -7 3 -2 5 12 5 14 0 19 -2 13 -5z"/>
</g>
</svg>
